<svg width="155" height="50" viewBox="0 0 155 50" fill="none" xmlns="http://www.w3.org/2000/svg">
<path d="M9.89728 49.9974C9.49903 49.9974 9.1104 49.9923 8.71527 49.9834C7.89673 49.9727 7.0801 49.9015 6.27208 49.7702C5.51864 49.6404 4.78876 49.3991 4.10652 49.054C3.43053 48.7119 2.81397 48.2632 2.28047 47.7252C1.73924 47.1936 1.28865 46.577 0.946539 45.8998C0.60066 45.2183 0.361292 44.4877 0.236772 43.7337C0.102301 42.9234 0.0295467 42.1041 0.0191363 41.2828C0.0108491 41.0071 0 40.0893 0 40.0893V9.89405C0 9.89405 0.011555 8.99029 0.0192017 8.72477C0.0291695 7.90479 0.101501 7.08676 0.235569 6.27775C0.360319 5.52161 0.599873 4.78896 0.945937 4.10518C1.28679 3.42851 1.73488 2.81144 2.27285 2.27789C2.81021 1.73928 3.42874 1.2883 4.10588 0.941402C4.78655 0.597477 5.51505 0.357802 6.26697 0.230406C7.07764 0.0978199 7.8971 0.0261373 8.71848 0.01596L9.89793 0H144.229L145.422 0.0166005C146.236 0.0262721 147.048 0.0973152 147.852 0.229125C148.611 0.358119 149.347 0.599466 150.036 0.945232C151.392 1.64434 152.496 2.7504 153.192 4.10837C153.533 4.78743 153.769 5.5141 153.892 6.26371C154.028 7.07936 154.103 7.90382 154.119 8.73052C154.123 9.1007 154.123 9.49833 154.123 9.89405C154.133 10.3842 154.133 10.8508 154.133 11.3211V38.6775C154.133 39.1523 154.133 39.6157 154.123 40.0829C154.123 40.508 154.123 40.8973 154.118 41.2981C154.103 42.1101 154.028 42.9198 153.894 43.7209C153.772 44.4804 153.534 45.2166 153.189 45.9037C152.844 46.5735 152.396 47.1848 151.861 47.715C151.327 48.2559 150.709 48.7072 150.032 49.0516C149.345 49.3992 148.61 49.6415 147.852 49.7702C147.044 49.9022 146.227 49.9734 145.408 49.9834C145.025 49.9923 144.625 49.9974 144.235 49.9974L142.818 50L9.89728 49.9974Z" fill="black"/>
<path d="M31.2364 25.3917C31.2505 24.3006 31.5403 23.2309 32.0788 22.282C32.6174 21.3331 33.3872 20.5358 34.3167 19.9644C33.7263 19.1211 32.9473 18.4271 32.0417 17.9375C31.1361 17.4479 30.1288 17.1762 29.0998 17.144C26.9048 16.9137 24.7769 18.4575 23.6584 18.4575C22.5182 18.4575 20.7961 17.1669 18.9416 17.2051C17.7421 17.2438 16.5731 17.5926 15.5485 18.2175C14.5239 18.8424 13.6786 19.722 13.095 20.7707C10.567 25.1475 12.4526 31.58 14.8742 35.1178C16.0858 36.8502 17.5018 38.7854 19.3546 38.7167C21.1676 38.6415 21.8448 37.5606 24.0333 37.5606C26.2015 37.5606 26.8368 38.7167 28.7271 38.6731C30.6726 38.6415 31.8984 36.933 33.0675 35.1842C33.938 33.9498 34.6078 32.5855 35.0522 31.1419C33.9219 30.6639 32.9574 29.8637 32.2788 28.8411C31.6003 27.8186 31.2377 26.6189 31.2364 25.3917V25.3917Z" fill="white"/>
<path d="M27.6659 14.8173C28.7266 13.5439 29.2492 11.9071 29.1227 10.2546C27.5021 10.4249 26.0051 11.1994 24.93 12.4239C24.4043 13.0222 24.0017 13.7181 23.7452 14.472C23.4887 15.2259 23.3833 16.023 23.435 16.8177C24.2456 16.826 25.0475 16.6503 25.7804 16.3038C26.5132 15.9573 27.1579 15.4491 27.6659 14.8173Z" fill="white"/>
<path d="M54.153 34.3314H47.9658L46.48 38.7187H43.8594L49.7197 22.4868H52.4425L58.3028 38.7187H55.6375L54.153 34.3314ZM48.6066 32.3069H53.5109L51.0933 25.1866H51.0256L48.6066 32.3069Z" fill="white"/>
<path d="M70.9592 32.8032C70.9592 36.4808 68.9908 38.8435 66.0205 38.8435C65.268 38.8829 64.5197 38.7096 63.8612 38.3434C63.2026 37.9772 62.6605 37.433 62.2969 36.7731H62.2407V42.6347H59.8116V26.8854H62.1629V28.8537H62.2076C62.5879 28.197 63.1392 27.6556 63.8027 27.2872C64.4662 26.9188 65.2172 26.7371 65.9758 26.7616C68.9793 26.7616 70.9592 29.1359 70.9592 32.8032ZM68.4624 32.8032C68.4624 30.4072 67.2242 28.8321 65.335 28.8321C63.479 28.8321 62.2306 30.4404 62.2306 32.8032C62.2306 35.1877 63.479 36.7846 65.335 36.7846C67.2242 36.7846 68.4624 35.2209 68.4624 32.8032Z" fill="white"/>
<path d="M83.9844 32.8032C83.9844 36.4808 82.016 38.8435 79.0457 38.8435C78.2932 38.8829 77.5449 38.7096 76.8864 38.3434C76.2278 37.9772 75.6858 37.433 75.3222 36.773H75.2659V42.6347H72.8368V26.8854H75.1881V28.8537H75.2327C75.6131 28.197 76.1643 27.6556 76.8278 27.2872C77.4914 26.9187 78.2424 26.7371 79.0009 26.7616C82.0045 26.7616 83.9844 29.1358 83.9844 32.8032ZM81.4876 32.8032C81.4876 30.4072 80.2494 28.832 78.3602 28.832C76.5042 28.832 75.2558 30.4404 75.2558 32.8032C75.2558 35.1877 76.5042 36.7846 78.3602 36.7846C80.2494 36.7846 81.4876 35.2209 81.4876 32.8032H81.4876Z" fill="white"/>
<path d="M92.593 34.1967C92.773 35.8064 94.3367 36.8632 96.4736 36.8632C98.521 36.8632 99.9941 35.8063 99.9941 34.3549C99.9941 33.095 99.1057 32.3406 97.002 31.8237L94.8984 31.3169C91.9178 30.5969 90.5341 29.203 90.5341 26.9411C90.5341 24.1405 92.9747 22.2168 96.4404 22.2168C99.8703 22.2168 102.222 24.1405 102.301 26.9411H99.8486C99.7018 25.3212 98.3627 24.3434 96.4059 24.3434C94.449 24.3434 93.11 25.3327 93.11 26.7726C93.11 27.9202 93.9652 28.5954 96.0574 29.1123L97.8457 29.5515C101.176 30.339 102.56 31.6768 102.56 34.0511C102.56 37.0878 100.141 38.9898 96.2935 38.9898C92.6938 38.9898 90.2634 37.1325 90.1064 34.1966L92.593 34.1967Z" fill="white"/>
<path d="M107.802 24.084V26.8846H110.053V28.8082H107.802V35.3323C107.802 36.3459 108.253 36.8182 109.242 36.8182C109.509 36.8135 109.776 36.7948 110.041 36.762V38.6741C109.597 38.7572 109.144 38.7949 108.692 38.7865C106.296 38.7865 105.362 37.8865 105.362 35.5914V28.8082H103.641V26.8846H105.362V24.084H107.802Z" fill="white"/>
<path d="M111.356 32.8029C111.356 29.0794 113.549 26.7396 116.969 26.7396C120.4 26.7396 122.583 29.0794 122.583 32.8029C122.583 36.5366 120.412 38.8662 116.969 38.8662C113.527 38.8662 111.356 36.5366 111.356 32.8029ZM120.108 32.8029C120.108 30.2487 118.937 28.7412 116.969 28.7412C115.001 28.7412 113.831 30.2602 113.831 32.8029C113.831 35.3674 115.001 36.8634 116.969 36.8634C118.937 36.8634 120.108 35.3674 120.108 32.8029H120.108Z" fill="white"/>
<path d="M124.586 26.8853H126.902V28.8996H126.959C127.115 28.2705 127.484 27.7145 128.002 27.3251C128.521 26.9358 129.157 26.7367 129.805 26.7615C130.085 26.7605 130.364 26.7909 130.637 26.8521V29.1242C130.284 29.0162 129.915 28.9667 129.546 28.9774C129.193 28.9631 128.841 29.0254 128.515 29.1598C128.188 29.2943 127.895 29.4979 127.654 29.7566C127.414 30.0152 127.232 30.3229 127.122 30.6584C127.011 30.9939 126.975 31.3493 127.015 31.7002V38.7196H124.586L124.586 26.8853Z" fill="white"/>
<path d="M141.835 35.2437C141.509 37.392 139.416 38.8663 136.74 38.8663C133.297 38.8663 131.16 36.5597 131.16 32.8592C131.16 29.1472 133.308 26.7397 136.638 26.7397C139.912 26.7397 141.971 28.9889 141.971 32.5771V33.4094H133.612V33.5562C133.574 33.9917 133.628 34.4305 133.772 34.8433C133.916 35.2561 134.146 35.6336 134.448 35.9507C134.749 36.2677 135.114 36.517 135.519 36.6821C135.924 36.8472 136.359 36.9243 136.796 36.9082C137.37 36.962 137.946 36.8291 138.438 36.5291C138.931 36.2292 139.313 35.7784 139.529 35.2437L141.835 35.2437ZM133.624 31.7117H139.54C139.562 31.32 139.503 30.9282 139.366 30.5606C139.229 30.193 139.018 29.8577 138.745 29.5756C138.473 29.2936 138.145 29.071 137.782 28.9217C137.419 28.7724 137.03 28.6997 136.638 28.7081C136.242 28.7057 135.85 28.7817 135.484 28.9317C135.118 29.0817 134.785 29.3027 134.505 29.5819C134.225 29.8612 134.003 30.1931 133.851 30.5587C133.7 30.9242 133.623 31.3161 133.624 31.7117V31.7117Z" fill="white"/>
<path d="M48.3022 10.2686C48.8115 10.2321 49.3226 10.309 49.7985 10.4939C50.2744 10.6787 50.7034 10.9669 51.0545 11.3377C51.4056 11.7084 51.67 12.1524 51.8287 12.6377C51.9874 13.123 52.0364 13.6375 51.9721 14.144C51.9721 16.6358 50.6255 18.068 48.3022 18.068H45.485V10.2686H48.3022ZM46.6964 16.965H48.1669C48.5308 16.9868 48.895 16.9271 49.233 16.7904C49.5709 16.6536 49.8741 16.4432 50.1205 16.1745C50.3669 15.9058 50.5502 15.5856 50.6572 15.2371C50.7642 14.8886 50.7922 14.5206 50.7391 14.1599C50.7883 13.8007 50.7576 13.435 50.6489 13.089C50.5403 12.7431 50.3564 12.4255 50.1106 12.1589C49.8648 11.8923 49.5631 11.6834 49.227 11.5472C48.891 11.4109 48.529 11.3507 48.1669 11.3708H46.6964V16.965Z" fill="white"/>
<path d="M53.3419 15.1228C53.3049 14.736 53.3492 14.3457 53.4718 13.977C53.5945 13.6083 53.7929 13.2693 54.0542 12.9818C54.3156 12.6942 54.6341 12.4645 54.9895 12.3073C55.3448 12.1501 55.7291 12.0688 56.1176 12.0688C56.5062 12.0688 56.8905 12.1501 57.2458 12.3073C57.6012 12.4645 57.9197 12.6942 58.1811 12.9818C58.4424 13.2693 58.6408 13.6083 58.7635 13.977C58.8861 14.3457 58.9304 14.736 58.8934 15.1228C58.9311 15.51 58.8873 15.9008 58.765 16.2701C58.6427 16.6394 58.4444 16.979 58.183 17.2671C57.9216 17.5552 57.6028 17.7854 57.2471 17.943C56.8914 18.1005 56.5067 18.1819 56.1176 18.1819C55.7286 18.1819 55.3439 18.1005 54.9882 17.943C54.6325 17.7854 54.3137 17.5552 54.0523 17.2671C53.7909 16.979 53.5926 16.6394 53.4703 16.2701C53.3479 15.9008 53.3042 15.51 53.3419 15.1228V15.1228ZM57.6986 15.1228C57.6986 13.8469 57.1254 13.1008 56.1196 13.1008C55.1099 13.1008 54.5419 13.8469 54.5419 15.1228C54.5419 16.4089 55.1099 17.1492 56.1196 17.1492C57.1254 17.1492 57.6986 16.4037 57.6986 15.1228H57.6986Z" fill="white"/>
<path d="M66.2713 18.068H65.0663L63.8498 13.7331H63.7579L62.5465 18.068H61.353L59.7306 12.1821H60.9088L61.9632 16.6734H62.05L63.2601 12.1821H64.3745L65.5846 16.6734H65.6765L66.7257 12.1821H67.8873L66.2713 18.068Z" fill="white"/>
<path d="M69.2507 12.1819H70.3689V13.1169H70.4557C70.6029 12.7811 70.8513 12.4996 71.1661 12.3116C71.481 12.1236 71.8466 12.0386 72.2121 12.0683C72.4985 12.0468 72.7861 12.0899 73.0535 12.1946C73.3209 12.2993 73.5614 12.4629 73.757 12.6731C73.9527 12.8833 74.0985 13.1349 74.1838 13.4092C74.269 13.6834 74.2914 13.9734 74.2494 14.2575V18.0677H73.0878V14.5492C73.0878 13.6033 72.6768 13.1329 71.8177 13.1329C71.6232 13.1238 71.4291 13.1569 71.2487 13.2299C71.0682 13.3029 70.9057 13.414 70.7722 13.5557C70.6387 13.6974 70.5374 13.8662 70.4753 14.0507C70.4132 14.2352 70.3917 14.4309 70.4123 14.6245V18.0678H69.2507L69.2507 12.1819Z" fill="white"/>
<path d="M76.1016 9.88428H77.2632V18.0679H76.1016V9.88428Z" fill="white"/>
<path d="M78.8779 15.1229C78.8409 14.736 78.8852 14.3458 79.0079 13.9771C79.1306 13.6083 79.329 13.2693 79.5904 12.9818C79.8517 12.6942 80.1703 12.4645 80.5257 12.3073C80.8811 12.1501 81.2654 12.0688 81.6539 12.0688C82.0425 12.0688 82.4268 12.1501 82.7822 12.3073C83.1376 12.4645 83.4561 12.6942 83.7175 12.9818C83.9789 13.2693 84.1773 13.6083 84.3 13.9771C84.4227 14.3458 84.4669 14.736 84.43 15.1229C84.4676 15.5101 84.4239 15.9009 84.3015 16.2702C84.1791 16.6395 83.9808 16.9791 83.7194 17.2672C83.458 17.5553 83.1391 17.7855 82.7834 17.943C82.4277 18.1006 82.043 18.182 81.6539 18.182C81.2649 18.182 80.8802 18.1006 80.5244 17.943C80.1687 17.7855 79.8499 17.5553 79.5885 17.2672C79.327 16.9791 79.1288 16.6395 79.0064 16.2702C78.884 15.9009 78.8402 15.5101 78.8779 15.1229V15.1229ZM83.2345 15.1229C83.2345 13.847 82.6614 13.1009 81.6555 13.1009C80.6458 13.1009 80.0778 13.847 80.0778 15.1229C80.0778 16.4089 80.6459 17.1493 81.6555 17.1493C82.6614 17.1493 83.2345 16.4038 83.2345 15.1229H83.2345Z" fill="white"/>
<path d="M85.6528 16.4038C85.6528 15.3443 86.4417 14.7335 87.842 14.6467L89.4363 14.5548V14.0468C89.4363 13.4251 89.0253 13.0741 88.2313 13.0741C87.5829 13.0741 87.1336 13.3121 87.0046 13.7283H85.88C85.9988 12.7173 86.9497 12.0688 88.2849 12.0688C89.7606 12.0688 90.5928 12.8035 90.5928 14.0468V18.0683H89.4746V17.2412H89.3827C89.1962 17.5379 88.9342 17.7798 88.6236 17.9421C88.313 18.1045 87.9649 18.1815 87.6148 18.1653C87.3677 18.191 87.118 18.1646 86.8817 18.0879C86.6454 18.0112 86.4278 17.8858 86.243 17.7198C86.0581 17.5539 85.9101 17.351 85.8085 17.1243C85.7068 16.8977 85.6538 16.6522 85.6528 16.4038V16.4038ZM89.4363 15.9008V15.4088L87.999 15.5007C87.1884 15.5549 86.8208 15.8306 86.8208 16.3495C86.8208 16.8793 87.2803 17.1875 87.9123 17.1875C88.0974 17.2063 88.2844 17.1876 88.4622 17.1326C88.64 17.0775 88.8049 16.9873 88.9471 16.8673C89.0893 16.7472 89.2059 16.5998 89.2899 16.4338C89.374 16.2678 89.4238 16.0865 89.4363 15.9008V15.9008Z" fill="white"/>
<path d="M92.1179 15.1224C92.1179 13.2625 93.074 12.0843 94.5611 12.0843C94.9289 12.0674 95.294 12.1555 95.6136 12.3384C95.9332 12.5212 96.1942 12.7913 96.366 13.117H96.4528V9.88428H97.6144V18.0679H96.5013V17.138H96.4094C96.2243 17.4615 95.9542 17.7282 95.6284 17.9092C95.3026 18.0902 94.9335 18.1786 94.5611 18.1649C93.0637 18.1649 92.1179 16.9867 92.1179 15.1224ZM93.3178 15.1224C93.3178 16.3708 93.9063 17.122 94.8904 17.122C95.8695 17.122 96.4745 16.36 96.4745 15.1275C96.4745 13.9008 95.8631 13.1279 94.8904 13.1279C93.9126 13.1279 93.3178 13.8842 93.3178 15.1224H93.3178Z" fill="white"/>
<path d="M102.42 15.1228C102.383 14.736 102.427 14.3457 102.55 13.977C102.673 13.6083 102.871 13.2693 103.132 12.9818C103.394 12.6942 103.712 12.4645 104.068 12.3073C104.423 12.1501 104.807 12.0688 105.196 12.0688C105.584 12.0688 105.969 12.1501 106.324 12.3073C106.679 12.4645 106.998 12.6942 107.259 12.9818C107.521 13.2693 107.719 13.6083 107.842 13.977C107.964 14.3457 108.008 14.736 107.971 15.1228C108.009 15.51 107.965 15.9008 107.843 16.2701C107.721 16.6394 107.523 16.979 107.261 17.2671C107 17.5552 106.681 17.7854 106.325 17.943C105.97 18.1005 105.585 18.1819 105.196 18.1819C104.807 18.1819 104.422 18.1005 104.066 17.943C103.711 17.7854 103.392 17.5552 103.13 17.2671C102.869 16.979 102.671 16.6394 102.548 16.2701C102.426 15.9008 102.382 15.51 102.42 15.1228V15.1228ZM106.777 15.1228C106.777 13.8469 106.204 13.1008 105.198 13.1008C104.188 13.1008 103.62 13.8469 103.62 15.1228C103.62 16.4089 104.188 17.1492 105.198 17.1492C106.204 17.1492 106.777 16.4037 106.777 15.1228Z" fill="white"/>
<path d="M109.532 12.1819H110.65V13.1169H110.737C110.884 12.7811 111.133 12.4996 111.448 12.3116C111.762 12.1236 112.128 12.0386 112.494 12.0683C112.78 12.0468 113.067 12.0899 113.335 12.1946C113.602 12.2993 113.843 12.4629 114.038 12.6731C114.234 12.8833 114.38 13.1349 114.465 13.4092C114.55 13.6834 114.573 13.9734 114.531 14.2575V18.0677H113.369V14.5492C113.369 13.6033 112.958 13.1329 112.099 13.1329C111.905 13.1238 111.711 13.1569 111.53 13.2299C111.35 13.3029 111.187 13.414 111.054 13.5557C110.92 13.6974 110.819 13.8662 110.757 14.0507C110.695 14.2352 110.673 14.4309 110.694 14.6245V18.0678H109.532V12.1819Z" fill="white"/>
<path d="M121.095 10.7166V12.2088H122.37V13.1872H121.095V16.2138C121.095 16.8303 121.349 17.1003 121.927 17.1003C122.075 17.0998 122.223 17.0909 122.37 17.0735V18.0411C122.161 18.0784 121.95 18.0983 121.738 18.1004C120.446 18.1004 119.932 17.646 119.932 16.5112V13.1872H118.997V12.2087H119.932V10.7166H121.095Z" fill="white"/>
<path d="M123.958 9.88428H125.109V13.1279H125.201C125.355 12.7889 125.611 12.5058 125.932 12.3171C126.253 12.1284 126.624 12.0434 126.996 12.0735C127.281 12.058 127.565 12.1055 127.83 12.2128C128.094 12.32 128.332 12.4843 128.525 12.6939C128.719 12.9035 128.864 13.1532 128.95 13.4253C129.036 13.6973 129.061 13.985 129.023 14.2678V18.0679H127.86V14.5543C127.86 13.6142 127.422 13.1381 126.601 13.1381C126.402 13.1217 126.201 13.1491 126.013 13.2185C125.825 13.2878 125.655 13.3974 125.513 13.5395C125.372 13.6817 125.264 13.8529 125.196 14.0413C125.128 14.2298 125.102 14.4308 125.119 14.6303V18.0679H123.958L123.958 9.88428Z" fill="white"/>
<path d="M135.795 16.4792C135.637 17.0172 135.295 17.4825 134.829 17.7938C134.362 18.1051 133.801 18.2425 133.244 18.1821C132.856 18.1923 132.471 18.118 132.115 17.9644C131.759 17.8108 131.44 17.5815 131.181 17.2924C130.923 17.0034 130.73 16.6615 130.617 16.2905C130.503 15.9195 130.472 15.5283 130.525 15.144C130.474 14.7586 130.505 14.3665 130.618 13.9944C130.731 13.6223 130.923 13.2788 131.18 12.9873C131.438 12.6957 131.755 12.4628 132.11 12.3043C132.465 12.1459 132.85 12.0656 133.239 12.0689C134.877 12.0689 135.865 13.1878 135.865 15.0361V15.4415H131.708V15.5066C131.69 15.7225 131.717 15.94 131.788 16.1449C131.859 16.3497 131.972 16.5376 132.119 16.6964C132.267 16.8551 132.446 16.9813 132.645 17.0668C132.844 17.1522 133.059 17.1952 133.276 17.1927C133.554 17.2261 133.835 17.1761 134.085 17.049C134.334 16.9219 134.54 16.7236 134.676 16.4792L135.795 16.4792ZM131.708 14.5824H134.681C134.696 14.3848 134.669 14.1864 134.603 13.9998C134.536 13.8133 134.431 13.6427 134.295 13.4991C134.158 13.3555 133.993 13.2421 133.81 13.166C133.627 13.09 133.431 13.0531 133.233 13.0576C133.032 13.0551 132.832 13.0928 132.646 13.1685C132.46 13.2443 132.291 13.3565 132.149 13.4986C132.007 13.6407 131.895 13.8098 131.819 13.9959C131.743 14.1821 131.706 14.3815 131.708 14.5824H131.708Z" fill="white"/>
</svg>
