<svg width="169" height="50" viewBox="0 0 169 50" fill="none" xmlns="http://www.w3.org/2000/svg">
<path d="M162.5 50H6.25C2.8125 50 0 47.1875 0 43.75V6.25C0 2.8125 2.8125 0 6.25 0H162.5C165.938 0 168.75 2.8125 168.75 6.25V43.75C168.75 47.1875 165.938 50 162.5 50Z" fill="black"/>
<path d="M59.2744 12.8042C59.2744 13.8515 58.9643 14.6855 58.3432 15.3076C57.6377 16.0474 56.7182 16.4175 55.5878 16.4175C54.5053 16.4175 53.5849 16.0425 52.828 15.2915C52.0698 14.541 51.6914 13.6103 51.6914 12.5C51.6914 11.3891 52.0698 10.459 52.828 9.70795C53.5849 8.95744 54.5053 8.58194 55.5878 8.58194C56.1249 8.58194 56.6392 8.68694 57.1274 8.89644C57.6157 9.10644 58.0073 9.3852 58.3003 9.73432L57.641 10.394C57.1445 9.8007 56.4609 9.50432 55.5878 9.50432C54.7983 9.50432 54.1157 9.7817 53.5395 10.3368C52.9633 10.8926 52.6753 11.6132 52.6753 12.5C52.6753 13.3867 52.9633 14.1073 53.5395 14.6631C54.1157 15.2182 54.7983 15.4956 55.5878 15.4956C56.4253 15.4956 57.1235 15.2167 57.6825 14.6582C58.0454 14.2943 58.2553 13.7886 58.3114 13.1391H55.5878V12.2382H59.2222C59.2573 12.4341 59.2744 12.6221 59.2744 12.8042" fill="white"/>
<path d="M59.2744 12.8042H59.1494C59.1484 13.8276 58.8495 14.6225 58.2548 15.2192L58.2534 15.2202L58.2529 15.2212C57.5698 15.9355 56.6918 16.291 55.5878 16.2925C54.5342 16.291 53.6523 15.9316 52.9159 15.2031C52.1812 14.4731 51.8178 13.582 51.8164 12.5C51.8178 11.4175 52.1812 10.5269 52.9159 9.79736C53.6523 9.06836 54.5342 8.70848 55.5878 8.70698C56.1088 8.70698 56.6049 8.80861 57.078 9.01123C57.5517 9.21536 57.9258 9.48286 58.2045 9.81498L58.3003 9.73436L58.2119 9.64598L57.5527 10.3061L57.641 10.394L57.7373 10.314C57.2177 9.69136 56.4883 9.37748 55.5878 9.37936C54.769 9.37836 54.0488 9.67086 53.453 10.2471C52.8515 10.8252 52.5493 11.5864 52.5503 12.5C52.5493 13.4136 52.8515 14.1747 53.453 14.7529C54.0488 15.3291 54.769 15.6216 55.5878 15.6206C56.453 15.6221 57.1904 15.3286 57.7709 14.7466C58.1587 14.3579 58.3784 13.8194 58.436 13.1499L58.4477 13.0141H55.7128V12.3632H59.2222V12.2382L59.099 12.2602C59.1333 12.4497 59.1494 12.6299 59.1494 12.8042H59.2744H59.3994C59.3994 12.6142 59.3818 12.419 59.3452 12.2159L59.3267 12.1132H55.4628V13.1391V13.2641H58.3114V13.1391L58.1869 13.1284C58.1318 13.7574 57.9315 14.231 57.5942 14.5699C57.057 15.105 56.3979 15.3691 55.5878 15.3706C54.8275 15.3696 54.1825 15.1079 53.6264 14.5732C53.0757 14.0405 52.8017 13.3604 52.8003 12.5C52.8017 11.6396 53.0757 10.9595 53.6264 10.4267C54.1825 9.89211 54.8275 9.63036 55.5878 9.62936C56.433 9.63136 57.0713 9.91061 57.5454 10.4746L57.6333 10.5791L58.3887 9.82273L58.4697 9.74173L58.3959 9.65423C58.0888 9.28811 57.6797 8.99748 57.1767 8.78173C56.6728 8.56536 56.141 8.45698 55.5878 8.45698C54.4765 8.45598 53.5175 8.84661 52.7397 9.61961C51.9589 10.3911 51.5654 11.3609 51.5664 12.5C51.5654 13.6386 51.9589 14.6089 52.7402 15.3809C53.5175 16.1534 54.4765 16.5435 55.5878 16.5425C56.745 16.5435 57.705 16.1591 58.4335 15.394L58.3432 15.3076L58.4315 15.396C59.079 14.749 59.4003 13.875 59.3994 12.8042H59.2744Z" fill="white"/>
<path d="M65.0346 9.67114H61.6191V12.0491H64.6992V12.9504H61.6191V15.3284H65.0346V16.2498H60.6562V8.74976H65.0346V9.67114Z" fill="white"/>
<path d="M65.0346 9.67117V9.54617H61.4941V12.1742H64.5742V12.825L61.4941 12.8254V15.4534H64.9096V16.1248H60.7812V8.8748H64.9096V9.67117H65.0346V9.54617V9.67117H65.1596V8.7498V8.6248H60.5312V16.3748H65.1596V15.3284V15.2034H61.7441V13.0754H64.8242V12.0492V11.9242H61.7441V9.79617H65.1596V9.67117H65.0346" fill="white"/>
<path d="M69.0986 16.2498H68.1342V9.67114H66.0395V8.74976H71.1934V9.67114H69.0986V16.2498Z" fill="white"/>
<path d="M69.0986 16.2498V16.1248H68.2592V9.54617H66.1645V8.8748H71.0684V9.54617H68.9736V16.2498H69.0986V16.1248V16.2498H69.2236V9.79617H71.3184V8.7498V8.6248H65.9145V9.67117V9.79617H68.0092V16.3748H69.0986H69.2236V16.2498H69.0986" fill="white"/>
<path d="M74.9224 16.2498V8.74976H75.8857V16.2498H74.9224Z" fill="white"/>
<path d="M74.9224 16.2498H75.0474V8.8748H75.7607V16.1248H74.9224V16.2498H75.0474H74.9224V16.3748H75.8857H76.0107V8.6248H74.9224H74.7974V16.3748H74.9224V16.2498Z" fill="white"/>
<path d="M80.1606 16.2498H79.1962V9.67114H77.1016V8.74976H82.2554V9.67114H80.1606V16.2498Z" fill="white"/>
<path d="M80.1606 16.2498V16.1248H79.3212V9.54617H77.2266V8.8748H82.1304V9.54617H80.0356V16.2498H80.1606V16.1248V16.2498H80.2856V9.79617H82.3804V8.7498V8.6248H76.9766V9.67117V9.79617H79.0712V16.3748H80.1606H80.2856V16.2498H80.1606" fill="white"/>
<path d="M87.2226 14.6528C87.7778 15.2148 88.457 15.4956 89.2603 15.4956C90.0635 15.4956 90.7431 15.2148 91.2974 14.6528C91.853 14.0908 92.1314 13.3725 92.1314 12.5C92.1314 11.6275 91.853 10.9091 91.2974 10.3471C90.7431 9.78507 90.0635 9.50432 89.2603 9.50432C88.457 9.50432 87.7778 9.78507 87.2226 10.3471C86.6684 10.9091 86.3901 11.6275 86.3901 12.5C86.3901 13.3725 86.6684 14.0908 87.2226 14.6528ZM92.0103 15.2807C91.2729 16.039 90.3559 16.4175 89.2603 16.4175C88.1635 16.4175 87.247 16.039 86.5112 15.2807C85.7734 14.5233 85.4062 13.5962 85.4062 12.5C85.4062 11.4037 85.7734 10.4765 86.5112 9.7192C87.247 8.96082 88.1635 8.58194 89.2603 8.58194C90.3501 8.58194 91.2646 8.96282 92.0054 9.72407C92.7451 10.4853 93.1153 11.4106 93.1153 12.5C93.1153 13.5962 92.746 14.5233 92.0103 15.2807Z" fill="white"/>
<path d="M87.2226 14.6529L87.1337 14.7407C87.7095 15.3252 88.4278 15.6221 89.2603 15.6206C90.0923 15.6221 90.8115 15.3252 91.3863 14.7407C91.9658 14.1557 92.2573 13.3989 92.2564 12.5C92.2573 11.6011 91.9658 10.8442 91.3863 10.2592C90.8115 9.67473 90.0923 9.37786 89.2603 9.37936C88.4278 9.37786 87.7095 9.67473 87.1337 10.2592C86.5556 10.8442 86.2636 11.6011 86.2651 12.5C86.2636 13.3989 86.5556 14.1557 87.1337 14.7407L87.2226 14.6529L87.3115 14.565C86.7813 14.0254 86.5161 13.3466 86.5151 12.5C86.5161 11.6534 86.7813 10.9746 87.3115 10.435C87.8466 9.89549 88.4858 9.63086 89.2603 9.62936C90.0341 9.63086 90.6748 9.89549 91.2085 10.435C91.7398 10.9746 92.0049 11.6534 92.0059 12.5C92.0049 13.3466 91.7398 14.0254 91.2085 14.565C90.6748 15.1045 90.0341 15.3691 89.2603 15.3706C88.4858 15.3691 87.8466 15.1045 87.3115 14.565L87.2226 14.6529ZM92.0103 15.2807L91.9209 15.1939C91.2041 15.9282 90.3276 16.291 89.2603 16.2925C88.1924 16.291 87.3159 15.9282 86.6005 15.1939L86.5971 15.19L86.6005 15.1939C85.8852 14.457 85.5323 13.5684 85.5313 12.5C85.5323 11.4316 85.8852 10.543 86.6005 9.80611C87.3159 9.07174 88.1924 8.70849 89.2603 8.70699C90.3208 8.70849 91.1953 9.07323 91.916 9.81148C92.6338 10.5517 92.9888 11.439 92.9903 12.5C92.9888 13.5684 92.6348 14.457 91.9209 15.1939L92.0103 15.2807L92.1001 15.3676C92.8579 14.5894 93.2411 13.624 93.2403 12.5C93.2411 11.3824 92.8564 10.419 92.0951 9.63723C91.3335 8.85248 90.3794 8.45561 89.2603 8.45699C88.1353 8.45561 87.1783 8.85061 86.4214 9.63236V9.63186C85.6621 10.4106 85.2803 11.376 85.2813 12.5C85.2803 13.624 85.6621 14.5894 86.4214 15.3681L86.4247 15.3716L86.4214 15.3676C87.1783 16.1494 88.1353 16.5435 89.2603 16.5425C90.3848 16.5435 91.3418 16.1494 92.1001 15.3676L92.0103 15.2807" fill="white"/>
<path d="M94.4692 16.2498V8.74976H95.6421L99.2871 14.5843H99.3286L99.2871 13.1389V8.74976H100.251V16.2498H99.2456L95.4321 10.1325H95.3906L95.4321 11.5784V16.2498H94.4692Z" fill="white"/>
<path d="M94.4692 16.2498H94.5942V8.8748H95.5727L99.2177 14.7093H99.3286H99.457L99.4121 13.137V8.8748H100.126V16.1248H99.315L95.5015 10.0075H95.3906H95.2622L95.3071 11.5804V16.1248H94.4692V16.2498H94.5942H94.4692V16.3748H95.4321H95.5571V11.5764L95.5156 10.1292L95.3906 10.1325V10.2575H95.4321V10.1325L95.3261 10.199L99.1762 16.3748H100.251H100.376V8.6248H99.2871H99.1621V13.1404L99.2036 14.5876L99.3286 14.5843V14.4593H99.2871V14.5843L99.3931 14.5179L95.7114 8.6248H94.4692H94.3442V16.3748H94.4692V16.2498Z" fill="white"/>
<path d="M133.669 37.5H136.001V21.8735H133.669V37.5ZM154.677 27.5025L152.004 34.2773H151.924L149.149 27.5025H146.636L150.797 36.9716L148.425 42.2387H150.859L157.271 27.5025H154.677ZM141.45 35.7251C140.685 35.7251 139.62 35.3432 139.62 34.398C139.62 33.1918 140.947 32.7295 142.092 32.7295C143.119 32.7295 143.6 32.9506 144.224 33.2525C144.042 34.6997 142.796 35.7251 141.45 35.7251V35.7251ZM141.731 27.1606C140.042 27.1606 138.294 27.9047 137.57 29.5532L139.64 30.4175C140.082 29.5532 140.906 29.2715 141.771 29.2715C142.977 29.2715 144.204 29.9956 144.224 31.2822V31.4428C143.801 31.2016 142.897 30.8398 141.791 30.8398C139.56 30.8398 137.287 32.0658 137.287 34.3578C137.287 36.4487 139.117 37.7958 141.167 37.7958C142.736 37.7958 143.6 37.0922 144.144 36.2681H144.224V37.4741H146.475V31.4828C146.475 28.709 144.405 27.1606 141.731 27.1606V27.1606ZM127.316 29.4047H123.999V24.0483H127.316C129.06 24.0483 130.05 25.4921 130.05 26.7265C130.05 27.9375 129.06 29.4047 127.316 29.4047ZM127.256 21.8735H121.667V37.5H123.999V31.5796H127.256C129.841 31.5796 132.382 29.708 132.382 26.7265C132.382 23.7451 129.841 21.8735 127.256 21.8735ZM96.7798 35.728C95.1684 35.728 93.8193 34.3788 93.8193 32.5258C93.8193 30.6533 95.1684 29.2837 96.7798 29.2837C98.3707 29.2837 99.6192 30.6533 99.6192 32.5258C99.6192 34.3788 98.3707 35.728 96.7798 35.728V35.728ZM99.458 28.3775H99.3774C98.854 27.7533 97.8467 27.1895 96.5782 27.1895C93.9199 27.1895 91.4834 29.5253 91.4834 32.5258C91.4834 35.5063 93.9199 37.8222 96.5782 37.8222C97.8467 37.8222 98.854 37.2582 99.3774 36.6142H99.458V37.3793C99.458 39.4136 98.3707 40.501 96.6187 40.501C95.1889 40.501 94.3028 39.4736 93.9399 38.6078L91.9063 39.4536C92.4903 40.8632 94.041 42.5952 96.6187 42.5952C99.3574 42.5952 101.673 40.9838 101.673 37.0571V27.5117H99.458V28.3775ZM103.284 37.5H105.62V21.873H103.284V37.5ZM109.064 32.3447C109.003 30.2905 110.655 29.2436 111.843 29.2436C112.77 29.2436 113.555 29.7065 113.816 30.3716L109.064 32.3447ZM116.314 30.5727C115.871 29.3842 114.521 27.1895 111.762 27.1895C109.023 27.1895 106.748 29.3442 106.748 32.5058C106.748 35.4863 109.003 37.8222 112.024 37.8222C114.461 37.8222 115.871 36.332 116.455 35.4662L114.642 34.2577C114.039 35.144 113.212 35.728 112.024 35.728C110.836 35.728 109.99 35.1841 109.446 34.1171L116.555 31.1767L116.314 30.5727ZM59.6783 28.8207V31.0761H65.0752C64.914 32.3447 64.4912 33.271 63.8467 33.9155C63.0615 34.7011 61.833 35.5668 59.6783 35.5668C56.3554 35.5668 53.7578 32.8886 53.7578 29.5658C53.7578 26.2431 56.3554 23.5645 59.6783 23.5645C61.4707 23.5645 62.7793 24.2695 63.746 25.1757L65.3369 23.585C63.9878 22.2958 62.1953 21.3091 59.6783 21.3091C55.1269 21.3091 51.3008 25.0146 51.3008 29.5658C51.3008 34.1171 55.1269 37.8222 59.6783 37.8222C62.1353 37.8222 63.9878 37.0171 65.4375 35.5063C66.9278 34.0161 67.3912 31.9218 67.3912 30.2305C67.3912 29.7065 67.351 29.2236 67.27 28.8207H59.6783ZM73.5269 35.728C71.9155 35.728 70.5259 34.3988 70.5259 32.5058C70.5259 30.5927 71.9155 29.2837 73.5269 29.2837C75.1377 29.2837 76.5273 30.5927 76.5273 32.5058C76.5273 34.3988 75.1377 35.728 73.5269 35.728V35.728ZM73.5269 27.1895C70.5864 27.1895 68.1899 29.4247 68.1899 32.5058C68.1899 35.5668 70.5864 37.8222 73.5269 37.8222C76.4668 37.8222 78.8633 35.5668 78.8633 32.5058C78.8633 29.4247 76.4668 27.1895 73.5269 27.1895ZM85.1684 35.728C83.5577 35.728 82.1679 34.3988 82.1679 32.5058C82.1679 30.5927 83.5577 29.2837 85.1684 29.2837C86.7793 29.2837 88.1689 30.5927 88.1689 32.5058C88.1689 34.3988 86.7793 35.728 85.1684 35.728ZM85.1684 27.1895C82.228 27.1895 79.832 29.4247 79.832 32.5058C79.832 35.5668 82.228 37.8222 85.1684 37.8222C88.1084 37.8222 90.5049 35.5668 90.5049 32.5058C90.5049 29.4247 88.1084 27.1895 85.1684 27.1895Z" fill="white"/>
<path d="M13.1362 40.4868L13.0433 40.3979C12.6796 40.0131 12.4648 39.4154 12.4648 38.6416V38.8237V11.1787C12.4648 11.1762 12.4648 11.1743 12.4648 11.1723C12.4648 11.1747 12.4648 11.1767 12.4648 11.1792V11.3618C12.4648 10.5238 12.7152 9.89257 13.1347 9.51407L28.6219 25.0009L13.1362 40.4868ZM12.4648 11.1708C12.4648 11.1019 12.4667 11.0351 12.4702 10.9692C12.4667 11.0346 12.4648 11.1019 12.4648 11.1708ZM12.4702 10.9662C12.4702 10.9653 12.4702 10.9643 12.4706 10.9633C12.4702 10.9643 12.4702 10.9653 12.4702 10.9662ZM12.4706 10.9574C12.4706 10.9569 12.4706 10.9564 12.4706 10.9559C12.4706 10.9564 12.4706 10.9569 12.4706 10.9574Z" fill="url(#paint0_linear)"/>
<path d="M33.7827 30.3481L33.9005 30.2813L40.0166 26.8061C40.5997 26.4746 40.9883 26.0728 41.1822 25.6475C40.9888 26.0728 40.6001 26.4751 40.0166 26.8066L33.9005 30.2818L33.7827 30.3481V30.3481ZM33.7842 30.165L28.6211 25.001L33.7837 19.8379L40.0166 23.3789C40.8081 23.8286 41.2525 24.4083 41.3267 25.0005C41.3267 25.001 41.3267 25.002 41.3267 25.0029C41.2525 25.5938 40.8081 26.1739 40.0166 26.6235L33.7842 30.165" fill="url(#paint1_linear)"/>
<path d="M14.2398 41.0767C13.8072 41.0767 13.4297 40.936 13.1353 40.6704L13.1358 40.6699C13.4302 40.9355 13.8082 41.0767 14.2408 41.0767C14.2783 41.0767 14.3164 41.0757 14.355 41.0738C14.3159 41.0757 14.2773 41.0767 14.2398 41.0767V41.0767ZM14.2403 40.8935C13.8077 40.894 13.4302 40.7529 13.1358 40.4873V40.4869L28.6215 25.0009L33.7847 30.165L15.6407 40.4742C15.1387 40.7588 14.663 40.8935 14.2403 40.8935V40.8935ZM13.1314 40.667C13.104 40.6422 13.0772 40.6158 13.0508 40.5884L13.1314 40.667Z" fill="url(#paint2_linear)"/>
<path d="M28.623 25.0007L13.1357 9.51388C13.4301 9.24876 13.8071 9.10813 14.2392 9.10813C14.6631 9.10813 15.1391 9.24338 15.6421 9.52851L33.7856 19.8376L28.623 25.0007V25.0007ZM33.9024 19.721L15.6421 9.346C15.1391 9.06075 14.6631 8.92551 14.2392 8.92551C14.2372 8.92551 14.2359 8.92551 14.2339 8.92551C14.2364 8.92551 14.2382 8.92551 14.2412 8.92551C14.6641 8.92551 15.1396 9.06025 15.6421 9.3455L33.9024 19.721V19.721Z" fill="url(#paint3_linear)"/>
<path d="M14.3551 41.0737C14.7481 41.0512 15.1832 40.916 15.6407 40.6567L33.7832 30.3481L15.6407 40.6567C15.1836 40.9165 14.7481 41.0512 14.3551 41.0737V41.0737ZM13.1353 40.6704L13.1315 40.667C13.1328 40.668 13.1343 40.6694 13.1353 40.6704ZM13.0508 40.5884L13.043 40.5806V40.5801C13.046 40.583 13.0483 40.5859 13.0508 40.5884Z" fill="black"/>
<path d="M33.7846 30.3481L33.9024 30.2816L33.7846 30.3481Z" fill="url(#paint4_linear)"/>
<path d="M14.2408 41.0767C13.8082 41.0767 13.4302 40.9355 13.1358 40.6699L13.1353 40.6704C13.1343 40.6694 13.1328 40.668 13.1315 40.667L13.0508 40.5884C13.0483 40.5859 13.046 40.583 13.043 40.5802L13.1358 40.4873C13.4302 40.7529 13.8077 40.894 14.2403 40.8935C14.6631 40.8935 15.1387 40.7588 15.6407 40.4742L33.7847 30.1649L33.901 30.2812L33.7832 30.3481L15.6407 40.6568C15.1832 40.916 14.7481 41.0513 14.3551 41.0738C14.3165 41.0757 14.2783 41.0767 14.2408 41.0767" fill="url(#paint5_linear)"/>
<path d="M13.0433 40.5806C12.6796 40.1957 12.4648 39.5981 12.4648 38.8242V38.8237C12.4648 39.5981 12.6796 40.1952 13.0433 40.5801V40.5806" fill="black"/>
<path d="M13.0433 40.5798C12.6796 40.195 12.4648 39.5979 12.4648 38.8235V38.6414C12.4648 39.4153 12.6796 40.0129 13.0433 40.3977L13.1362 40.4866L13.0433 40.5798" fill="url(#paint6_linear)"/>
<path d="M13.043 40.5798L13.1358 40.4867V40.4871L13.043 40.5798" fill="url(#paint7_linear)"/>
<path d="M41.1841 25.6475C41.2802 25.4365 41.3286 25.2197 41.3286 25.0028C41.3286 25.0024 41.3286 25.0019 41.3286 25.0019C41.3286 25.2192 41.2802 25.436 41.1841 25.6475Z" fill="black"/>
<path d="M33.9024 30.2815L33.7861 30.1652L40.0185 26.6237C40.81 26.1741 41.2544 25.594 41.3286 25.0031C41.3286 25.22 41.2802 25.4367 41.1841 25.6477C40.9902 26.073 40.6016 26.4749 40.0185 26.8064L33.9024 30.2815Z" fill="url(#paint8_linear)"/>
<path d="M41.3286 25.0007V25.0002C41.3281 24.3464 40.8911 23.6926 40.0185 23.1965L33.9024 19.7214H33.9019L33.9024 19.721L40.0185 23.196C40.8921 23.6921 41.3296 24.3469 41.3286 25.0007Z" fill="#404040"/>
<path d="M41.3286 25.0004C41.2544 24.4081 40.81 23.8285 40.0185 23.3787L33.7856 19.8377L33.9019 19.7215H33.9024L40.0185 23.1966C40.8911 23.6927 41.3281 24.3465 41.3286 25.0004Z" fill="url(#paint9_linear)"/>
<path d="M12.4648 11.1726C12.4648 11.1721 12.4648 11.1716 12.4648 11.1711C12.4648 11.1716 12.4648 11.1721 12.4648 11.1726ZM12.4702 10.9695C12.4702 10.9685 12.4702 10.9675 12.4702 10.9665C12.4702 10.9675 12.4702 10.9685 12.4702 10.9695ZM12.4706 10.9636C12.4706 10.9616 12.4706 10.9597 12.4706 10.9577C12.4706 10.9597 12.4706 10.9616 12.4706 10.9636ZM12.4706 10.9562C12.543 9.67207 13.2412 8.93029 14.229 8.92592C13.8007 8.92842 13.4277 9.06905 13.1357 9.33218V9.33168L13.1322 9.33518C13.1015 9.36293 13.0722 9.39231 13.0433 9.42256C12.7152 9.76969 12.5082 10.2897 12.4706 10.9562Z" fill="#404040"/>
<path d="M12.4648 11.3621V11.1794C12.4648 11.1769 12.4648 11.1749 12.4648 11.1726C12.4648 11.1721 12.4648 11.1716 12.4648 11.1711C12.4648 11.1022 12.4667 11.0348 12.4702 10.9694C12.4702 10.9684 12.4702 10.9674 12.4702 10.9664C12.4702 10.9656 12.4702 10.9646 12.4706 10.9636C12.4706 10.9616 12.4706 10.9597 12.4706 10.9577C12.4706 10.9572 12.4706 10.9567 12.4706 10.9562C12.5082 10.2897 12.7152 9.7697 13.0433 9.42258L13.1347 9.51433C12.7152 9.89283 12.4648 10.5241 12.4648 11.3621V11.3621ZM13.1322 9.33521L13.1357 9.33171C13.1347 9.33321 13.1332 9.33421 13.1322 9.33521Z" fill="url(#paint10_linear)"/>
<path d="M33.7842 19.8379L15.6407 9.52873C15.1377 9.2436 14.6617 9.10835 14.2378 9.10835C13.8057 9.10835 13.4287 9.24898 13.1343 9.5141L13.043 9.42235C13.0718 9.3921 13.1011 9.36273 13.1318 9.33498C13.1328 9.33398 13.1343 9.33298 13.1353 9.33198C13.4273 9.06885 13.8003 8.92823 14.2286 8.92573C14.2296 8.92573 14.231 8.92573 14.2325 8.92573C14.2345 8.92573 14.2358 8.92573 14.2378 8.92573C14.6617 8.92573 15.1377 9.06098 15.6407 9.34623L33.901 19.7213L33.9005 19.7216L33.7842 19.8379Z" fill="url(#paint11_linear)"/>
<defs>
<linearGradient id="paint0_linear" x1="27.2487" y1="10.8871" x2="6.27058" y2="31.8652" gradientUnits="userSpaceOnUse">
<stop stop-color="#00A0FF"/>
<stop offset="0.00657445" stop-color="#00A1FF"/>
<stop offset="0.2601" stop-color="#00BEFF"/>
<stop offset="0.5122" stop-color="#00D2FF"/>
<stop offset="0.7604" stop-color="#00DFFF"/>
<stop offset="1" stop-color="#00E3FF"/>
</linearGradient>
<linearGradient id="paint1_linear" x1="42.2911" y1="25.0018" x2="12.0448" y2="25.0018" gradientUnits="userSpaceOnUse">
<stop stop-color="#FFE000"/>
<stop offset="0.4087" stop-color="#FFBD00"/>
<stop offset="0.7754" stop-color="#FFA500"/>
<stop offset="1" stop-color="#FF9C00"/>
</linearGradient>
<linearGradient id="paint2_linear" x1="31.0323" y1="27.8701" x2="2.58427" y2="56.318" gradientUnits="userSpaceOnUse">
<stop stop-color="#FF3A44"/>
<stop offset="1" stop-color="#C31162"/>
</linearGradient>
<linearGradient id="paint3_linear" x1="9.12162" y1="0.220019" x2="21.8247" y2="12.9231" gradientUnits="userSpaceOnUse">
<stop stop-color="#32A071"/>
<stop offset="0.0685" stop-color="#2DA771"/>
<stop offset="0.4762" stop-color="#15CF74"/>
<stop offset="0.8009" stop-color="#06E775"/>
<stop offset="1" stop-color="#00F076"/>
</linearGradient>
<linearGradient id="paint4_linear" x1="42.2921" y1="25.0265" x2="12.0492" y2="25.0265" gradientUnits="userSpaceOnUse">
<stop stop-color="#CCB300"/>
<stop offset="0.4087" stop-color="#CC9700"/>
<stop offset="0.7754" stop-color="#CC8400"/>
<stop offset="1" stop-color="#CC7D00"/>
</linearGradient>
<linearGradient id="paint5_linear" x1="31.0323" y1="27.87" x2="2.5842" y2="56.3179" gradientUnits="userSpaceOnUse">
<stop stop-color="#CC2E36"/>
<stop offset="1" stop-color="#9C0E4E"/>
</linearGradient>
<linearGradient id="paint6_linear" x1="27.2483" y1="10.8882" x2="6.27115" y2="31.8657" gradientUnits="userSpaceOnUse">
<stop stop-color="#008DE0"/>
<stop offset="0.00657445" stop-color="#008DE0"/>
<stop offset="0.2601" stop-color="#00A7E0"/>
<stop offset="0.5122" stop-color="#00B8E0"/>
<stop offset="0.7604" stop-color="#00C4E0"/>
<stop offset="1" stop-color="#00C7E0"/>
</linearGradient>
<linearGradient id="paint7_linear" x1="31.0304" y1="27.883" x2="2.61209" y2="56.3278" gradientUnits="userSpaceOnUse">
<stop stop-color="#E0333C"/>
<stop offset="1" stop-color="#AB0F56"/>
</linearGradient>
<linearGradient id="paint8_linear" x1="42.293" y1="25.002" x2="12.0468" y2="25.002" gradientUnits="userSpaceOnUse">
<stop stop-color="#E0C500"/>
<stop offset="0.4087" stop-color="#E0A600"/>
<stop offset="0.7754" stop-color="#E09100"/>
<stop offset="1" stop-color="#E08900"/>
</linearGradient>
<linearGradient id="paint9_linear" x1="42.293" y1="25.0016" x2="12.0467" y2="25.0016" gradientUnits="userSpaceOnUse">
<stop stop-color="#FFE840"/>
<stop offset="0.4087" stop-color="#FFCE40"/>
<stop offset="0.7754" stop-color="#FFBC40"/>
<stop offset="1" stop-color="#FFB540"/>
</linearGradient>
<linearGradient id="paint10_linear" x1="27.2486" y1="10.8873" x2="6.27069" y2="31.8652" gradientUnits="userSpaceOnUse">
<stop stop-color="#40B8FF"/>
<stop offset="0.00657445" stop-color="#40B9FF"/>
<stop offset="0.2601" stop-color="#40CEFF"/>
<stop offset="0.5122" stop-color="#40DDFF"/>
<stop offset="0.7604" stop-color="#40E7FF"/>
<stop offset="1" stop-color="#40EAFF"/>
</linearGradient>
<linearGradient id="paint11_linear" x1="9.12022" y1="0.220196" x2="21.8234" y2="12.9233" gradientUnits="userSpaceOnUse">
<stop stop-color="#65B895"/>
<stop offset="0.0685" stop-color="#62BD95"/>
<stop offset="0.4762" stop-color="#50DB97"/>
<stop offset="0.8009" stop-color="#44ED98"/>
<stop offset="1" stop-color="#40F498"/>
</linearGradient>
</defs>
</svg>
